<svg xmlns="http://www.w3.org/2000/svg" width="100" height="100" viewBox="0 0 100 100">
<path d="M 28.10,33.05 L 27.40,32.85 L 26.35,31.40 L 26.35,23.50 L 26.85,21.40 L 28.05,19.50 L 29.80,17.95 L 31.90,16.95 L 42.10,16.85 L 42.60,17.05 L 43.25,18.00 L 43.35,18.90 L 43.05,19.70 L 42.30,20.25 L 41.40,20.55 L 33.20,20.55 L 31.15,21.40 L 30.05,23.00 L 29.95,31.60 L 28.80,32.85 L 28.10,33.05 Z" fill="#00A090" fill-rule="evenodd"/>
<path d="M 72.10,32.95 L 70.70,32.75 L 69.85,31.60 L 69.85,24.00 L 69.65,23.10 L 68.75,21.70 L 68.20,21.15 L 66.50,20.55 L 58.30,20.55 L 57.60,20.35 L 56.65,19.70 L 56.15,18.80 L 56.35,18.00 L 57.10,17.05 L 57.50,16.85 L 67.90,16.95 L 69.90,17.95 L 71.85,19.80 L 72.95,21.60 L 73.25,23.30 L 73.25,31.50 L 72.85,32.30 L 72.10,32.95 Z" fill="#00A090" fill-rule="evenodd"/>
<path d="M 41.90,59.15 L 31.70,58.95 L 29.70,57.85 L 28.05,56.30 L 26.85,54.30 L 26.35,52.00 L 26.35,44.90 L 26.65,44.10 L 27.60,43.15 L 28.80,43.25 L 29.95,44.50 L 29.95,52.00 L 30.15,53.20 L 30.95,53.90 L 30.95,54.60 L 33.10,55.85 L 39.40,55.95 L 39.80,55.55 L 42.50,55.85 L 43.05,56.30 L 43.35,57.80 L 42.60,58.95 L 41.90,59.15 Z" fill="#00A090" fill-rule="evenodd"/>
<path d="M 66.60,59.15 L 57.50,59.15 L 56.55,58.80 L 56.85,58.20 L 56.15,57.30 L 57.10,56.05 L 57.70,55.85 L 66.60,55.85 L 68.50,54.85 L 69.65,53.30 L 69.95,52.40 L 69.95,50.00 L 69.65,49.50 L 69.85,44.40 L 71.10,43.15 L 71.80,43.05 L 72.95,43.90 L 73.25,44.60 L 73.35,51.10 L 72.95,54.30 L 71.65,56.40 L 70.00,57.95 L 68.10,58.95 L 66.60,59.15 Z" fill="#00A090" fill-rule="evenodd"/>
<path d="M 52.50,24.95 L 50.50,24.75 L 49.55,23.10 L 49.85,21.60 L 50.70,20.75 L 52.10,20.55 L 52.80,20.95 L 53.65,22.00 L 53.35,24.00 L 52.50,24.95 Z" fill="#000000" fill-rule="evenodd"/>
<path d="M 38.00,48.65 L 37.40,48.65 L 37.05,48.10 L 37.35,44.60 L 37.90,44.15 L 39.50,43.95 L 41.50,42.35 L 43.70,41.05 L 44.95,38.60 L 45.05,37.50 L 45.95,36.80 L 45.65,35.00 L 46.95,30.90 L 47.15,28.50 L 46.50,28.15 L 44.50,28.95 L 44.05,29.40 L 43.35,31.70 L 43.65,33.40 L 43.40,33.85 L 42.60,34.05 L 41.95,33.40 L 41.95,32.40 L 42.35,28.70 L 43.05,27.50 L 43.70,27.05 L 44.60,26.95 L 45.80,26.15 L 49.50,25.35 L 51.55,26.50 L 53.30,30.15 L 54.60,30.05 L 56.30,28.55 L 56.90,28.55 L 57.35,29.00 L 57.45,29.60 L 53.60,32.65 L 52.90,32.55 L 51.70,30.95 L 51.20,30.95 L 50.75,31.50 L 49.85,33.90 L 50.05,35.10 L 53.10,37.35 L 54.25,38.60 L 54.35,39.50 L 53.95,40.90 L 53.55,45.60 L 54.10,46.25 L 55.20,46.75 L 55.85,47.60 L 52.10,47.95 L 51.45,47.50 L 52.05,40.20 L 51.10,39.05 L 48.40,38.05 L 47.05,39.90 L 46.55,41.20 L 45.20,42.65 L 44.10,42.95 L 41.40,44.55 L 40.40,44.85 L 39.15,46.10 L 38.55,48.10 L 38.00,48.65 Z" fill="#000000" fill-rule="evenodd"/>
<path d="M 56.30,58.85 L 52.70,58.75 L 48.40,57.75 L 46.80,56.95 L 44.90,56.45 L 44.15,55.80 L 44.05,54.90 L 45.70,52.95 L 48.10,51.35 L 53.20,49.35 L 56.00,48.95 L 57.50,47.95 L 57.85,47.60 L 57.85,47.10 L 56.80,45.95 L 56.00,45.75 L 55.75,45.20 L 60.50,41.15 L 61.50,41.05 L 66.75,46.40 L 68.85,49.00 L 69.85,49.70 L 69.85,52.90 L 68.50,54.85 L 66.60,55.85 L 57.30,55.95 L 56.25,57.00 L 56.15,57.30 L 56.85,58.20 L 56.85,58.50 L 56.30,58.85 Z" fill="#000000" fill-rule="evenodd"/>
<path d="M 39.40,55.95 L 32.80,55.75 L 30.95,54.60 L 30.95,53.90 L 31.50,53.25 L 35.50,51.15 L 41.30,49.15 L 43.90,48.85 L 46.00,48.15 L 48.00,48.05 L 49.00,47.55 L 49.50,47.55 L 49.85,47.90 L 49.95,48.50 L 49.30,49.15 L 46.90,49.95 L 43.10,51.95 L 40.95,53.90 L 39.40,55.95 Z" fill="#000000" fill-rule="evenodd"/>
<path d="M 37.80,67.75 L 36.90,67.55 L 36.25,66.80 L 36.25,66.30 L 37.40,65.35 L 38.20,65.65 L 38.85,66.60 L 38.65,67.20 L 37.80,67.75 Z" fill="#000000" fill-rule="evenodd"/>
<path d="M 42.50,77.85 L 41.30,77.85 L 40.85,77.40 L 40.85,66.60 L 40.95,66.20 L 41.70,65.65 L 42.60,65.85 L 42.95,66.70 L 42.95,77.30 L 42.50,77.85 Z" fill="#000000" fill-rule="evenodd"/>
<path d="M 69.20,77.95 L 66.70,77.85 L 65.15,76.60 L 64.35,74.50 L 64.45,72.50 L 65.15,70.60 L 67.00,69.15 L 69.30,69.05 L 70.70,69.65 L 71.15,68.70 L 71.15,66.20 L 71.50,65.75 L 72.40,65.75 L 72.95,66.10 L 73.15,66.60 L 73.05,76.40 L 73.25,77.10 L 72.70,77.85 L 71.40,77.85 L 70.30,77.35 L 69.20,77.95 Z" fill="#000000" fill-rule="evenodd"/>
<path d="M 53.40,77.95 L 51.60,77.65 L 49.75,74.20 L 48.70,73.55 L 47.90,73.65 L 47.35,74.30 L 47.35,77.50 L 46.70,77.85 L 45.40,77.85 L 45.15,77.60 L 45.05,66.50 L 45.30,66.05 L 51.50,66.05 L 52.20,66.35 L 53.45,67.70 L 53.85,68.60 L 53.75,71.20 L 51.75,73.40 L 51.95,74.40 L 53.75,76.90 L 53.85,77.60 L 53.40,77.95 Z" fill="#000000" fill-rule="evenodd"/>
<path d="M 16.60,77.85 L 15.30,77.85 L 14.75,77.30 L 14.85,68.50 L 14.10,67.85 L 11.30,67.75 L 10.95,66.70 L 11.40,66.05 L 19.70,66.05 L 20.45,66.70 L 20.35,67.40 L 19.90,67.75 L 17.90,67.75 L 16.95,68.20 L 16.95,77.30 L 16.60,77.85 Z" fill="#000000" fill-rule="evenodd"/>
<path d="M 49.45,71.80 L 51.15,70.80 L 51.65,69.70 L 51.55,69.20 L 50.60,67.85 L 48.00,67.75 L 47.25,68.60 L 47.45,71.20 L 48.30,71.85 L 49.45,71.80 Z" fill="#000000" fill-rule="evenodd"/>
<path d="M 22.50,77.85 L 21.30,77.85 L 20.75,77.30 L 20.75,69.90 L 21.40,69.15 L 22.30,69.15 L 23.40,69.95 L 24.70,69.05 L 25.40,69.05 L 25.85,69.50 L 25.65,70.90 L 25.30,71.25 L 24.20,71.35 L 22.85,72.50 L 22.85,77.30 L 22.50,77.85 Z" fill="#000000" fill-rule="evenodd"/>
<path d="M 30.30,78.05 L 27.50,77.65 L 26.65,76.00 L 26.75,74.90 L 27.25,73.90 L 28.20,73.25 L 31.80,72.85 L 32.25,72.30 L 32.15,71.50 L 31.50,70.75 L 30.20,70.65 L 28.40,71.75 L 27.50,71.75 L 27.15,71.40 L 27.15,70.90 L 29.00,69.15 L 32.30,69.15 L 33.85,70.30 L 34.25,71.40 L 34.45,77.20 L 33.90,77.85 L 31.60,77.65 L 30.30,78.05 Z" fill="#000000" fill-rule="evenodd"/>
<path d="M 58.80,78.05 L 56.20,77.75 L 55.15,76.40 L 55.15,74.70 L 56.60,73.25 L 60.50,72.75 L 60.85,72.40 L 60.85,71.80 L 60.20,70.95 L 59.60,70.65 L 58.30,70.75 L 57.10,71.75 L 55.90,71.75 L 55.55,71.50 L 55.55,71.10 L 56.05,70.30 L 57.50,69.15 L 60.70,69.15 L 62.00,70.05 L 62.75,71.10 L 62.85,77.50 L 61.90,77.95 L 60.40,77.45 L 58.80,78.05 Z" fill="#000000" fill-rule="evenodd"/>
<path d="M 78.50,78.05 L 75.80,77.75 L 74.95,76.40 L 74.95,74.90 L 75.15,74.30 L 76.40,73.25 L 79.90,72.85 L 80.35,72.40 L 80.15,71.30 L 79.80,70.85 L 79.10,70.65 L 78.00,70.75 L 77.10,71.55 L 76.10,71.85 L 75.40,71.75 L 75.15,71.30 L 75.35,70.80 L 77.30,69.15 L 79.90,69.05 L 81.40,69.75 L 82.35,71.20 L 82.45,77.40 L 82.00,77.85 L 79.80,77.65 L 78.50,78.05 Z" fill="#000000" fill-rule="evenodd"/>
<path d="M 86.40,77.85 L 85.10,77.85 L 84.55,77.50 L 84.45,77.10 L 84.65,76.30 L 84.55,69.80 L 84.80,69.35 L 85.40,69.15 L 86.30,69.25 L 87.40,69.85 L 88.40,69.15 L 89.20,69.05 L 89.75,69.60 L 89.45,71.00 L 88.50,71.15 L 86.85,72.30 L 86.75,77.40 L 86.40,77.85 Z" fill="#000000" fill-rule="evenodd"/>
<path d="M 38.30,77.85 L 37.00,77.85 L 36.35,77.20 L 36.45,69.60 L 37.00,69.25 L 38.30,69.25 L 38.75,69.90 L 38.75,77.30 L 38.30,77.85 Z" fill="#000000" fill-rule="evenodd"/>
<path d="M 69.65,76.10 L 70.40,75.75 L 71.05,75.00 L 71.15,72.50 L 70.95,72.00 L 69.70,70.95 L 68.30,70.85 L 67.70,71.15 L 66.75,72.30 L 66.65,74.50 L 67.40,75.85 L 68.10,76.15 L 69.65,76.10 Z" fill="#000000" fill-rule="evenodd"/>
<path d="M 30.55,76.60 L 32.05,75.70 L 32.25,74.70 L 31.80,74.15 L 30.00,74.15 L 28.85,74.80 L 28.85,76.00 L 29.70,76.55 L 30.55,76.60 Z" fill="#000000" fill-rule="evenodd"/>
<path d="M 59.05,76.60 L 59.90,76.25 L 60.85,75.40 L 60.95,74.80 L 60.60,74.25 L 58.40,74.15 L 57.25,75.00 L 57.15,75.70 L 57.80,76.35 L 59.05,76.60 Z" fill="#000000" fill-rule="evenodd"/>
<path d="M 78.75,76.60 L 79.60,76.25 L 80.35,75.30 L 80.35,74.60 L 79.80,74.15 L 77.90,74.25 L 76.85,75.00 L 76.85,75.80 L 77.30,76.25 L 78.75,76.60 Z" fill="#000000" fill-rule="evenodd"/>
</svg>